#!OML:ASF H:\Male1\Project 1\Capture day 1\Session 1\Male1.ASF
:FULLY-SPECIFIED
:DEGREES
121
root 4.89323 18.3889 -0.0663114 6.71223 -69.4387 3.4163
lowerback 19.8466 2.14365 -1.55316
upperback 6.55479 1.99747 -2.79291
thorax -3.96022 0.854046 -2.53887
lowerneck -13.4656 4.88134 9.38614
upperneck 17.0138 5.44016 -4.53818
head 7.86757 2.7374 -2.45143
rclavicle 1.03368e-014 -3.69739e-014
rhumerus 25.1259 5.95669 -40.891
rradius 98.4859
rwrist 6.47711
rhand -8.77649 -1.81114
rfingers 7.12502
rthumb 17.1616 -31.0733
lclavicle 1.03368e-014 -3.69739e-014
lhumerus 25.9378 2.36017 46.3748
lradius 102.371
lwrist 28.0562
lhand -33.8506 23.0545
lfingers 7.12502
lthumb -7.03537 52.9176
rfemur -4.64531 2.46675 18.7756
rtibia 26.1053
rfoot -5.0079 -30.5212
rtoes 1.79114
lfemur -53.3675 5.44385 -30.2277
ltibia 67.3417
lfoot -31.8004 9.54699
ltoes 9.77428
122
root 4.83541 18.5615 0.0310305 7.39306 -70.0498 2.72367
lowerback 19.9686 1.96337 -2.04948
upperback 6.59803 1.68746 -2.35574
thorax -4.01591 0.69432 -1.72256
lowerneck -13.104 5.31413 9.61373
upperneck 17.1361 6.19411 -5.43895
head 7.93548 3.02987 -2.7077
rclavicle -3.3197e-014 3.33958e-014
rhumerus 25.0754 7.82437 -41.3926
rradius 99.0809
rwrist 6.95643
rhand -9.88723 -1.07046
rfingers 7.12502
rthumb 16.0922 -30.4223
lclavicle -3.3197e-014 3.33958e-014
lhumerus 25.2669 3.31207 46.4464
lradius 103.016
lwrist 28.9843
lhand -33.2766 24.023
lfingers 7.12502
lthumb -6.48129 53.9038
rfemur -7.64246 0.690145 18.5955
rtibia 30.7223
rfoot -4.81128 -28.8234
rtoes -0.420302
lfemur -51.4162 5.94893 -30.2052
ltibia 64.7511
lfoot -31.6165 9.64228
ltoes 11.1784
123
root 4.78463 18.7358 0.125916 8.25145 -70.7288 1.80877
lowerback 20.1901 1.77045 -2.45296
upperback 6.6283 1.37206 -1.92604
thorax -4.12289 0.532653 -0.96779
lowerneck -12.9053 5.78583 9.68626
upperneck 17.5205 6.97818 -6.09238
head 8.11747 3.34608 -2.84961
rclavicle 7.91163e-014 -9.14409e-015
rhumerus 25.1622 9.75098 -41.8295
rradius 99.4935
rwrist 7.48223
rhand -11.0407 -0.287492
rfingers 7.12502
rthumb 14.9813 -29.7256
lclavicle 7.91163e-014 -9.14409e-015
lhumerus 24.3972 4.29385 46.5613
lradius 103.764
lwrist 30.017
lhand -32.6046 24.9308
lfingers 7.12502
lthumb -5.83249 54.8306
rfemur -10.6775 -1.01358 18.5548
rtibia 35.3945
rfoot -4.7982 -27.3422
rtoes -2.61623
lfemur -49.4385 6.49216 -30.1015
ltibia 62.0646
lfoot -31.2849 9.78214
ltoes 12.3811
124
root 4.74103 18.9113 0.218673 9.37131 -71.4844 0.594033
lowerback 20.5148 1.60029 -2.66031
upperback 6.64495 1.11375 -1.55435
thorax -4.28348 0.400652 -0.399379
lowerneck -12.9083 6.24029 9.6466
upperneck 18.1917 7.69628 -6.44747
head 8.41711 3.64367 -2.87583
rclavicle 1.23246e-014 -3.37934e-014
rhumerus 25.245 11.6152 -42.2345
rradius 99.7489
rwrist 8.00884
rhand -12.1901 0.516874
rfingers 7.12502
rthumb 13.8738 -29.0004
lclavicle 1.23246e-014 -3.37934e-014
lhumerus 23.4544 5.1917 46.7015
lradius 104.618
lwrist 31.1118
lhand -31.8099 25.7836
lfingers 7.12502
lthumb -5.06521 55.7031
rfemur -13.7579 -2.60031 18.6697
rtibia 40.1235
rfoot -5.10838 -26.0364
rtoes -4.97692
lfemur -47.4554 7.04216 -29.8891
ltibia 59.3056
lfoot -30.8014 9.98747
ltoes 13.3933
125
root 4.7052 19.0875 0.309089 10.7695 -72.3355 -0.927237
lowerback 20.9274 1.47977 -2.75044
upperback 6.66179 0.936024 -1.20092
thorax -4.48271 0.308638 0.0655966
lowerneck -13.1174 6.68893 9.51685
upperneck 19.0978 8.37771 -6.59478
head 8.82305 3.92729 -2.81423
rclavicle 2.88238e-014 -2.8625e-014
rhumerus 25.3645 13.3995 -42.5404
rradius 99.8699
rwrist 8.48006
rhand -13.2703 1.33076
rfingers 7.12502
rthumb 12.8326 -28.2548
lclavicle 2.88238e-014 -2.8625e-014
lhumerus 22.442 6.03444 46.93
lradius 105.581
lwrist 32.2465
lhand -30.8734 26.5546
lfingers 7.12502
lthumb -4.16092 56.4937
rfemur -16.8935 -4.02233 18.924
rtibia 44.8998
rfoot -5.73348 -24.8695
rtoes -7.56157
lfemur -45.4851 7.5763 -29.5742
ltibia 56.5003
lfoot -30.1702 10.2925
ltoes 14.1779
126
root 4.67631 19.264 0.397843 12.3774 -73.273 -2.68465
lowerback 21.4002 1.41098 -2.80335
upperback 6.70298 0.828675 -0.840922
thorax -4.68449 0.249974 0.501986
lowerneck -13.4106 7.13409 9.32132
upperneck 19.9964 9.06357 -6.71372
head 9.24307 4.20357 -2.72514
rclavicle 9.54166e-015 -4.37326e-015
rhumerus 25.5884 15.1073 -42.7014
rradius 99.8721
rwrist 8.87153
rhand -14.2495 2.12792
rfingers 7.12502
rthumb 11.8885 -27.5146
lclavicle 9.54166e-015 -4.37326e-015
lhumerus 21.3467 6.8516 47.2699
lradius 106.635
lwrist 33.386
lhand -29.7697 27.3052
lfingers 7.12502
lthumb -3.09501 57.2625
rfemur -20.07 -5.29353 19.2637
rtibia 49.7079
rfoot -6.54242 -23.7809
rtoes -10.3653
lfemur -43.5109 8.05883 -29.1961
ltibia 53.6687
lfoot -29.4154 10.7078
ltoes 14.7532
127
root 4.65414 19.439 0.484626 14.437 -74.2739 -4.89791
lowerback 21.8811 1.38005 -2.85564
upperback 6.75525 0.772791 -0.42941
thorax -4.87829 0.215472 0.983455
lowerneck -13.5585 7.59894 9.17306
upperneck 20.6208 9.82372 -7.03792
head 9.56571 4.49754 -2.70365
rclavicle 6.55989e-015 3.97569e-016
rhumerus 25.9634 16.8056 -42.6978
rradius 99.7795
rwrist 9.17423
rhand -15.1193 2.87402
rfingers 7.12502
rthumb 11.0497 -26.8151
lclavicle 6.55989e-015 3.97569e-016
lhumerus 20.1025 7.66144 47.6996
lradius 107.769
lwrist 34.5199
lhand -28.6493 28.0277
lfingers 7.12502
lthumb -2.01302 57.9979
rfemur -23.3168 -6.39397 19.739
rtibia 54.5334
rfoot -7.3527 -22.7694
rtoes -12.844
lfemur -41.578 8.46432 -28.706
ltibia 50.843
lfoot -28.5483 11.2096
ltoes 15.1869
128
root 4.63736 19.6114 0.569559 17.0434 -75.3074 -7.66207
lowerback 22.3665 1.37517 -2.89509
upperback 6.82359 0.754167 0.0156001
thorax -5.05691 0.19778 1.48708
lowerneck -13.5771 8.07577 9.07578
upperneck 20.9669 10.6342 -7.52783
head 9.78867 4.80449 -2.74099
rclavicle -2.0276e-014 8.34896e-015
rhumerus 26.4822 18.4809 -42.5578
rradius 99.6202
rwrist 9.4012
rhand -15.8884 3.55782
rfingers 7.12502
rthumb 10.3078 -26.1696
lclavicle -2.0276e-014 8.34896e-015
lhumerus 18.709 8.44472 48.1531
lradius 108.977
lwrist 35.6594
lhand -27.6441 28.7261
lfingers 7.12502
lthumb -1.04221 58.7033
rfemur -26.6222 -7.32569 20.3411
rtibia 59.3593
rfoot -8.16365 -21.8405
rtoes -15.1005
lfemur -39.6799 8.77644 -28.1064
ltibia 48.0391
lfoot -27.5681 11.7989
ltoes 15.4406
129
root 4.62509 19.7803 0.652731 20.3437 -76.3427 -11.1169
lowerback 22.8547 1.37543 -2.89462
upperback 6.90349 0.750199 0.468963
thorax -5.22325 0.185942 1.97606
lowerneck -13.4914 8.56492 9.02578
upperneck 21.0679 11.4826 -8.14614
head 9.92593 5.12424 -2.82548
rclavicle -1.78906e-015 9.93923e-015
rhumerus 27.1397 20.1374 -42.3302
rradius 99.4019
rwrist 9.60841
rhand -16.613 4.19309
rfingers 7.12502
rthumb 9.60879 -25.5678
lclavicle -1.78906e-015 9.93923e-015
lhumerus 17.1806 9.18961 48.5715
lradius 110.226
lwrist 36.7283
lhand -26.8788 29.5004
lfingers 7.12502
lthumb -0.303073 59.48
rfemur -29.9904 -8.09072 21.067
rtibia 64.172
rfoot -8.96804 -20.9944
rtoes -17.1525
lfemur -37.8239 8.99512 -27.4001
ltibia 45.2657
lfoot -26.4464 12.4908
ltoes 15.3921
130
root 4.6155 19.9451 0.734747 24.3818 -77.367 -15.3191
lowerback 23.3453 1.3768 -2.88415
upperback 6.99957 0.748115 0.920981
thorax -5.37185 0.173244 2.46042
lowerneck -13.3552 9.06138 8.9719
upperneck 21.0271 12.3473 -8.79756
head 10.0138 5.45182 -2.91757
rclavicle -7.95139e-016 -1.82882e-014
rhumerus 27.9464 21.7786 -42.0376
rradius 99.1337
rwrist 9.78474
rhand -17.2792 4.78213
rfingers 7.12502
rthumb 8.96594 -25.0073
lclavicle -7.95139e-016 -1.82882e-014
lhumerus 15.5109 9.89995 48.9484
lradius 111.476
lwrist 37.5706
lhand -26.569 30.3349
lfingers 7.12502
lthumb -0.00381251 60.3147
rfemur -33.3906 -8.6955 21.8716
rtibia 68.9569
rfoot -9.76163 -20.1978
rtoes -19.1231
lfemur -35.971 9.13377 -26.6168
ltibia 42.5085
lfoot -25.1569 13.282
ltoes 14.945
131
root 4.60643 20.1054 0.815888 29.0641 -78.3789 -20.1864
lowerback 23.8218 1.38156 -2.91756
upperback 7.1183 0.736604 1.34441
thorax -5.4864 0.153778 2.9446
lowerneck -13.1596 9.56084 8.92052
upperneck 20.8871 13.2126 -9.45099
head 10.0624 5.78459 -3.01049
rclavicle -1.19271e-015 1.98785e-015
rhumerus 28.8964 23.4014 -41.7104
rradius 98.8163
rwrist 9.94111
rhand -17.8951 5.31614
rfingers 7.12502
rthumb 8.3716 -24.498
lclavicle -1.19271e-015 1.98785e-015
lhumerus 13.6757 10.5868 49.2735
lradius 112.72
lwrist 38.0698
lhand -26.7456 31.1689
lfingers 7.12502
lthumb -0.174412 61.1486
rfemur -36.7883 -9.15644 22.6683
rtibia 73.6974
rfoot -10.5337 -19.394
rtoes -21.1861
lfemur -34.0702 9.19545 -25.821
ltibia 39.7449
lfoot -23.7045 14.159
ltoes 14.1067
132
root 4.59673 20.2604 0.895936 34.3476 -79.3659 -25.6732
lowerback 24.281 1.39219 -3.02328
upperback 7.26396 0.710278 1.72836
thorax -5.56005 0.124591 3.4345
lowerneck -12.9464 10.0544 8.83937
upperneck 20.6678 14.0657 -10.0902
head 10.0813 6.11544 -3.09409
rclavicle -2.5842e-015 -2.8625e-014
rhumerus 29.9901 24.9824 -41.3425
rradius 98.4519
rwrist 10.095
rhand -18.4593 5.8145
rfingers 7.12502
rthumb 7.82702 -24.0206
lclavicle -2.5842e-015 -2.8625e-014
lhumerus 11.6611 11.2557 49.5711
lradius 113.933
lwrist 38.0808
lhand -27.4247 31.8539
lfingers 7.12502
lthumb -0.830284 61.832
rfemur -40.1716 -9.49716 23.3975
rtibia 78.3713
rfoot -11.2422 -18.5274
rtoes -23.3839
lfemur -32.0979 9.16836 -25.062
ltibia 36.9531
lfoot -22.1385 15.0935
ltoes 13.027
133
root 4.58639 20.4084 0.974313 40.3589 -80.3042 -31.912
lowerback 24.7224 1.41316 -3.20522
upperback 7.43625 0.672925 2.07517
thorax -5.59257 0.0872182 3.93375
lowerneck -12.7289 10.5419 8.73693
upperneck 20.3924 14.9011 -10.7043
head 10.0798 6.44332 -3.1665
rclavicle 3.97569e-016 -1.86858e-014
rhumerus 31.2115 26.5103 -40.9186
rradius 98.0552
rwrist 10.2426
rhand -18.9723 6.28005
rfingers 7.12502
rthumb 7.33187 -23.5729
lclavicle 3.97569e-016 -1.86858e-014
lhumerus 9.47717 11.925 49.8725
lradius 115.087
lwrist 37.5796
lhand -28.4894 32.2494
lfingers 7.12502
lthumb -1.85861 62.221
rfemur -43.5276 -9.72386 24.0526
rtibia 82.947
rfoot -11.8216 -17.5521
rtoes -25.7107
lfemur -30.0424 9.0446 -24.3473
ltibia 34.1288
lfoot -20.5554 16.0476
ltoes 11.9897
134
root 4.57512 20.5483 1.05049 47.0305 -81.1671 -38.8452
lowerback 25.1526 1.44106 -3.46844
upperback 7.63376 0.617271 2.37662
thorax -5.58731 0.037972 4.43823
lowerneck -12.5144 11.0199 8.63184
upperneck 20.0945 15.7133 -11.3019
head 10.072 6.76505 -3.2344
rclavicle 4.37326e-015 -3.1408e-014
rhumerus 32.5314 27.9773 -40.4351
rradius 97.6435
rwrist 10.3751
rhand -19.4427 6.69067
rfingers 7.12502
rthumb 6.87783 -23.1776
lclavicle 4.37326e-015 -3.1408e-014
lhumerus 7.17076 12.6258 50.201
lradius 116.161
lwrist 36.663
lhand -29.699 32.3005
lfingers 7.12502
lthumb -3.02673 62.2588
rfemur -46.8357 -9.87542 24.6067
rtibia 87.3874
rfoot -12.2582 -16.4162
rtoes -28.0511
lfemur -27.8863 8.81321 -23.7111
ltibia 31.2876
lfoot -19.1289 16.9427
ltoes 11.5542
